<svg width="57" height="124" viewBox="0 0 57 124" fill="none" xmlns="http://www.w3.org/2000/svg">
<rect x="0.5" width="56" height="56" rx="28" fill="white"/>
<path d="M39.0453 28.5216C39.0671 25.0706 36.4852 23.3874 34.206 21.9034L34.1788 21.8857C33.6814 21.5605 33.2126 21.2532 32.7973 20.9436C30.8096 19.4539 29.0698 17.1229 28.8664 16.2792C28.8254 16.1144 28.6827 16.0056 28.4934 16C28.3592 16.0109 28.2041 16.0992 28.1582 16.268C27.9264 17.106 26.4078 19.3702 24.2129 20.8921C23.8623 21.1359 23.4848 21.374 23.0485 21.6501C20.7682 23.0939 17.9297 24.8917 17.9533 28.4779C17.9815 32.9151 20.6799 34.935 23.1741 34.935C24.7968 34.935 26.3758 34.1366 27.5408 32.7345C27.0383 35.1404 25.5067 38.1305 21.1501 39.2807C20.974 39.3277 20.8585 39.5009 20.8802 39.682C20.9043 39.8634 21.0608 39.9999 21.2445 39.9999H35.7602C35.9631 39.9999 36.126 39.8366 36.126 39.6342C36.126 39.4568 35.9948 39.2964 35.8447 39.279C35.6538 39.2213 31.2256 37.8386 29.6997 32.855C30.8536 34.0744 32.3766 34.7683 33.9168 34.7696C36.4501 34.7696 39.0159 32.8372 39.0453 28.5216Z" fill="#BF8D5C"/>
<mask id="path-3-inside-1_2455_631" fill="white">
<path d="M28.5 73H29.5V124H28.5V73Z"/>
</mask>
<path d="M28 73V74.53H29V73H28ZM28 76.57V79.63H29V76.57H28ZM28 81.67V84.73H29V81.67H28ZM28 86.77V89.83H29V86.77H28ZM28 91.87V94.93H29V91.87H28ZM28 96.97V100.03H29V96.97H28ZM28 102.07V105.13H29V102.07H28ZM28 107.17V110.23H29V107.17H28ZM28 112.27V115.33H29V112.27H28ZM28 117.37V120.43H29V117.37H28ZM28 122.47V124H29V122.47H28ZM27.5 73V74.53H29.5V73H27.5ZM27.5 76.57V79.63H29.5V76.57H27.5ZM27.5 81.67V84.73H29.5V81.67H27.5ZM27.5 86.77V89.83H29.5V86.77H27.5ZM27.5 91.87V94.93H29.5V91.87H27.5ZM27.5 96.97V100.03H29.5V96.97H27.5ZM27.5 102.07V105.13H29.5V102.07H27.5ZM27.5 107.17V110.23H29.5V107.17H27.5ZM27.5 112.27V115.33H29.5V112.27H27.5ZM27.5 117.37V120.43H29.5V117.37H27.5ZM27.5 122.47V124H29.5V122.47H27.5Z" fill="#1E1E2F" fill-opacity="0.6" mask="url(#path-3-inside-1_2455_631)"/>
</svg>
