<svg width="57" height="126" viewBox="0 0 57 126" fill="none" xmlns="http://www.w3.org/2000/svg">
<rect x="0.5" width="56" height="56" rx="28" fill="white"/>
<path d="M23.25 29.5H18.75C18.3358 29.5 18 29.8358 18 30.25V37.75C18 38.1642 18.3358 38.5 18.75 38.5H23.25C23.6642 38.5 24 38.1642 24 37.75V30.25C24 29.8358 23.6642 29.5 23.25 29.5Z" fill="#6C749D"/>
<path d="M38.25 23.5H33.75C33.3358 23.5 33 23.8358 33 24.25V37.75C33 38.1642 33.3358 38.5 33.75 38.5H38.25C38.6642 38.5 39 38.1642 39 37.75V24.25C39 23.8358 38.6642 23.5 38.25 23.5Z" fill="#6C749D"/>
<path d="M30.75 17.5H26.25C25.8358 17.5 25.5 17.8358 25.5 18.25V37.75C25.5 38.1642 25.8358 38.5 26.25 38.5H30.75C31.1642 38.5 31.5 38.1642 31.5 37.75V18.25C31.5 17.8358 31.1642 17.5 30.75 17.5Z" fill="#6C749D"/>
<mask id="path-5-inside-1_2125_17469" fill="white">
<path d="M28.5 73H29.5V126H28.5V73Z"/>
</mask>
<path d="M28 73V74.4455H29V73H28ZM28 76.3727V79.2636H29V76.3727H28ZM28 81.1909V84.0818H29V81.1909H28ZM28 86.0091V88.9H29V86.0091H28ZM28 90.8273V93.7182H29V90.8273H28ZM28 95.6455V98.5364H29V95.6455H28ZM28 100.464V103.355H29V100.464H28ZM28 105.282V108.173H29V105.282H28ZM28 110.1V112.991H29V110.1H28ZM28 114.918V117.809H29V114.918H28ZM28 119.736V122.627H29V119.736H28ZM28 124.555V126H29V124.555H28ZM27.5 73V74.4455H29.5V73H27.5ZM27.5 76.3727V79.2636H29.5V76.3727H27.5ZM27.5 81.1909V84.0818H29.5V81.1909H27.5ZM27.5 86.0091V88.9H29.5V86.0091H27.5ZM27.5 90.8273V93.7182H29.5V90.8273H27.5ZM27.5 95.6455V98.5364H29.5V95.6455H27.5ZM27.5 100.464V103.355H29.5V100.464H27.5ZM27.5 105.282V108.173H29.5V105.282H27.5ZM27.5 110.1V112.991H29.5V110.1H27.5ZM27.5 114.918V117.809H29.5V114.918H27.5ZM27.5 119.736V122.627H29.5V119.736H27.5ZM27.5 124.555V126H29.5V124.555H27.5Z" fill="#1E1E2F" fill-opacity="0.6" mask="url(#path-5-inside-1_2125_17469)"/>
</svg>
