<svg width="56" height="56" viewBox="0 0 56 56" fill="none" xmlns="http://www.w3.org/2000/svg">
<rect width="56" height="56" rx="28" fill="white"/>
<path d="M34.9844 25H29.0464L29.9803 17.118C29.9834 17.099 29.9843 17.0201 29.9843 16.9999C29.9843 16.4391 29.5454 16 28.9844 16C28.6714 16 28.3713 16.149 28.1685 16.423L20.1843 28.4001C20.0554 28.572 19.9844 28.785 19.9844 28.9999C19.9844 29.561 20.4235 30.0001 20.9843 30.0001H25.9283L24.9874 38.897C24.9854 38.9149 24.9844 38.9819 24.9844 39C24.9844 39.5609 25.4233 40 25.9844 40C26.2973 40 26.5974 39.8509 26.7953 39.584L35.7844 26.6C35.9135 26.428 35.9843 26.2151 35.9843 25.9999C35.9843 25.4391 35.5454 25 34.9844 25Z" fill="#A969A9"/>
</svg>
