<svg width="44" height="44" viewBox="0 0 44 44" fill="none" xmlns="http://www.w3.org/2000/svg">
<path d="M0 22C0 11.6291 0 6.44365 3.22182 3.22182C6.44365 0 11.6291 0 22 0C32.3709 0 37.5563 0 40.7782 3.22182C44 6.44365 44 11.6291 44 22C44 32.3709 44 37.5563 40.7782 40.7782C37.5563 44 32.3709 44 22 44C11.6291 44 6.44365 44 3.22182 40.7782C0 37.5563 0 32.3709 0 22Z" fill="white"/>
<path d="M26.4021 28.6016C27.0096 28.6016 27.5132 29.0989 27.3925 29.6943C27.1793 30.7459 26.6612 31.7206 25.8912 32.4906C24.8598 33.5221 23.4608 34.1016 22.0021 34.1016C20.5434 34.1016 19.1445 33.5221 18.1131 32.4906C17.3431 31.7206 16.825 30.7459 16.6118 29.6943C16.491 29.0989 16.9946 28.6016 17.6021 28.6016H26.4021Z" fill="#001F4F"/>
<path d="M28.7124 19.5549C28.1256 19.7121 27.7662 20.326 28.0638 20.8557C28.3769 21.4132 28.8101 21.8997 29.3371 22.2773C30.1645 22.8702 31.1719 23.158 32.1878 23.0913C33.2035 23.0248 34.1648 22.6081 34.9077 21.9122C35.6508 21.2164 36.1294 20.2843 36.2623 19.2751C36.3952 18.2658 36.1741 17.2417 35.6365 16.3772C35.0989 15.5129 34.2782 14.8616 33.3143 14.5343C32.3503 14.2071 31.3028 14.2242 30.3501 14.5828C29.7433 14.8112 29.1991 15.169 28.7522 15.6264C28.3278 16.061 28.516 16.7471 29.0421 17.0508L29.6001 17.373C30.4488 17.863 30.2815 19.1345 29.3348 19.3882L28.7124 19.5549Z" fill="#001F4F"/>
<path d="M15.2867 19.5549C15.8736 19.7121 16.233 20.326 15.9354 20.8557C15.6222 21.4132 15.1891 21.8997 14.6622 22.2773C13.8347 22.8702 12.8272 23.158 11.8115 23.0913C10.7957 23.0248 9.83439 22.6081 9.09142 21.9122C8.34845 21.2164 7.86974 20.2843 7.73687 19.2751C7.604 18.2658 7.82518 17.2417 8.36274 16.3772C8.90028 15.5129 9.72095 14.8616 10.6849 14.5343C11.6488 14.2071 12.6965 14.2242 13.6492 14.5828C14.2558 14.8112 14.8002 15.169 15.247 15.6264C15.6715 16.061 15.4832 16.7471 14.9571 17.0508L14.399 17.373C13.5504 17.863 13.7178 19.1345 14.6644 19.3882L15.2867 19.5549Z" fill="#001F4F"/>
</svg>
