<svg width="19" height="19" viewBox="0 0 19 19" fill="none" xmlns="http://www.w3.org/2000/svg">
<path d="M11.084 7.1237V3.95703C11.084 3.32714 10.8338 2.72305 10.3884 2.27765C9.94296 1.83225 9.33887 1.58203 8.70898 1.58203L5.54232 8.70703V17.4154H14.4723C14.8542 17.4197 15.2247 17.2859 15.5157 17.0385C15.8066 16.7912 15.9984 16.4471 16.0557 16.0695L17.1482 8.94453C17.1826 8.71761 17.1673 8.4859 17.1033 8.26548C17.0393 8.04506 16.9281 7.84118 16.7775 7.66798C16.6269 7.49478 16.4405 7.35639 16.2311 7.26241C16.0217 7.16843 15.7943 7.1211 15.5648 7.1237H11.084ZM5.54232 17.4154H3.16732C2.74739 17.4154 2.34466 17.2485 2.04773 16.9516C1.7508 16.6547 1.58398 16.252 1.58398 15.832V10.2904C1.58398 9.87044 1.7508 9.46771 2.04773 9.17078C2.34466 8.87385 2.74739 8.70703 3.16732 8.70703H5.54232" fill="#245AEC" fill-opacity="0.2"/>
<path d="M5.54232 8.70703L8.70898 1.58203C9.33887 1.58203 9.94296 1.83225 10.3884 2.27765C10.8338 2.72305 11.084 3.32714 11.084 3.95703V7.1237H15.5648C15.7943 7.1211 16.0217 7.16843 16.2311 7.26241C16.4405 7.35639 16.6269 7.49478 16.7775 7.66798C16.9281 7.84118 17.0393 8.04506 17.1033 8.26548C17.1673 8.4859 17.1826 8.71761 17.1482 8.94453L16.0557 16.0695C15.9984 16.4471 15.8066 16.7912 15.5157 17.0385C15.2247 17.2859 14.8542 17.4197 14.4723 17.4154H5.54232M5.54232 8.70703V17.4154M5.54232 8.70703H3.16732C2.74739 8.70703 2.34466 8.87385 2.04773 9.17078C1.7508 9.46771 1.58398 9.87044 1.58398 10.2904V15.832C1.58398 16.252 1.7508 16.6547 2.04773 16.9516C2.34466 17.2485 2.74739 17.4154 3.16732 17.4154H5.54232" stroke="#245AEC" stroke-width="1.58333" stroke-linecap="round" stroke-linejoin="round"/>
</svg>
