<svg width="23" height="16" viewBox="0 0 23 16" fill="none" xmlns="http://www.w3.org/2000/svg">
<rect x="8.45703" y="4.39844" width="8.45588" height="7.77941" fill="white"/>
<path d="M12.0098 15.8767L7.29102 15.7904C5.76314 15.7604 4.23151 15.8204 2.73367 15.5091C0.454993 15.044 0.293572 12.7635 0.124642 10.8505C-0.108106 8.16113 -0.0180101 5.42299 0.421207 2.75612C0.668971 1.25952 1.64501 0.366807 3.15412 0.269285C8.24829 -0.083298 13.3762 -0.0420384 18.4592 0.123C18.996 0.138004 19.5366 0.220523 20.0659 0.314295C22.6787 0.771902 22.7425 3.35626 22.9114 5.53177C23.0803 7.72978 23.009 9.93905 22.6862 12.1221C22.4271 13.93 21.9316 15.4453 19.8406 15.5916C17.2203 15.7829 14.6601 15.9367 12.0323 15.8879C12.0323 15.8767 12.0173 15.8767 12.0098 15.8767ZM9.23559 11.3006C11.2102 10.1679 13.1473 9.05384 15.1106 7.92858C13.1322 6.79581 11.1989 5.6818 9.23559 4.55654V11.3006Z" fill="#FF0000"/>
</svg>
